<svg width="64" height="1371" viewBox="0 0 64 1371" fill="none" xmlns="http://www.w3.org/2000/svg">
<rect x="0.5" y="0.5" width="63" height="1370" rx="4.5" stroke="#9747FF" stroke-dasharray="10 5"/>
<mask id="mask0_9_1090" style="mask-type:alpha" maskUnits="userSpaceOnUse" x="20" y="1076" width="24" height="24">
<rect x="20" y="1076" width="24" height="24" fill="#D9D9D9"/>
</mask>
<g mask="url(#mask0_9_1090)">
<path d="M36.1 1089.3L34.65 1087.85C34.8 1087.07 34.575 1086.33 33.975 1085.65C33.375 1084.97 32.6 1084.7 31.65 1084.85L30.2 1083.4C30.4833 1083.27 30.7708 1083.17 31.0625 1083.1C31.3542 1083.03 31.6667 1083 32 1083C33.25 1083 34.3125 1083.44 35.1875 1084.31C36.0625 1085.19 36.5 1086.25 36.5 1087.5C36.5 1087.83 36.4667 1088.15 36.4 1088.44C36.3333 1088.73 36.2333 1089.02 36.1 1089.3ZM39.3 1092.45L37.85 1091.05C38.4833 1090.57 39.0458 1090.04 39.5375 1089.46C40.0292 1088.89 40.45 1088.23 40.8 1087.5C39.9667 1085.82 38.7708 1084.48 37.2125 1083.49C35.6542 1082.5 33.9167 1082 32 1082C31.5167 1082 31.0417 1082.03 30.575 1082.1C30.1083 1082.17 29.65 1082.27 29.2 1082.4L27.65 1080.85C28.3333 1080.57 29.0333 1080.35 29.75 1080.21C30.4667 1080.07 31.2167 1080 32 1080C34.5167 1080 36.7583 1080.7 38.725 1082.09C40.6917 1083.48 42.1167 1085.28 43 1087.5C42.6167 1088.48 42.1125 1089.4 41.4875 1090.24C40.8625 1091.08 40.1333 1091.82 39.3 1092.45ZM39.8 1098.6L35.6 1094.45C35.0167 1094.63 34.4292 1094.77 33.8375 1094.86C33.2458 1094.95 32.6333 1095 32 1095C29.4833 1095 27.2417 1094.3 25.275 1092.91C23.3083 1091.52 21.8833 1089.72 21 1087.5C21.35 1086.62 21.7917 1085.8 22.325 1085.04C22.8583 1084.28 23.4667 1083.6 24.15 1083L21.4 1080.2L22.8 1078.8L41.2 1097.2L39.8 1098.6ZM25.55 1084.4C25.0667 1084.83 24.625 1085.31 24.225 1085.82C23.825 1086.34 23.4833 1086.9 23.2 1087.5C24.0333 1089.18 25.2292 1090.52 26.7875 1091.51C28.3458 1092.5 30.0833 1093 32 1093C32.3333 1093 32.6583 1092.98 32.975 1092.94C33.2917 1092.9 33.6167 1092.85 33.95 1092.8L33.05 1091.85C32.8667 1091.9 32.6917 1091.94 32.525 1091.96C32.3583 1091.99 32.1833 1092 32 1092C30.75 1092 29.6875 1091.56 28.8125 1090.69C27.9375 1089.81 27.5 1088.75 27.5 1087.5C27.5 1087.32 27.5125 1087.14 27.5375 1086.97C27.5625 1086.81 27.6 1086.63 27.65 1086.45L25.55 1084.4Z" fill="#003333"/>
</g>
<mask id="mask1_9_1090" style="mask-type:alpha" maskUnits="userSpaceOnUse" x="20" y="1032" width="24" height="24">
<rect x="20" y="1032" width="24" height="24" fill="#D9D9D9"/>
</mask>
<g mask="url(#mask1_9_1090)">
<path d="M32 1048C33.25 1048 34.3125 1047.56 35.1875 1046.69C36.0625 1045.81 36.5 1044.75 36.5 1043.5C36.5 1042.25 36.0625 1041.19 35.1875 1040.31C34.3125 1039.44 33.25 1039 32 1039C30.75 1039 29.6875 1039.44 28.8125 1040.31C27.9375 1041.19 27.5 1042.25 27.5 1043.5C27.5 1044.75 27.9375 1045.81 28.8125 1046.69C29.6875 1047.56 30.75 1048 32 1048ZM32 1046.2C31.25 1046.2 30.6125 1045.94 30.0875 1045.41C29.5625 1044.89 29.3 1044.25 29.3 1043.5C29.3 1042.75 29.5625 1042.11 30.0875 1041.59C30.6125 1041.06 31.25 1040.8 32 1040.8C32.75 1040.8 33.3875 1041.06 33.9125 1041.59C34.4375 1042.11 34.7 1042.75 34.7 1043.5C34.7 1044.25 34.4375 1044.89 33.9125 1045.41C33.3875 1045.94 32.75 1046.2 32 1046.2ZM32 1051C29.5667 1051 27.35 1050.32 25.35 1048.96C23.35 1047.6 21.9 1045.78 21 1043.5C21.9 1041.22 23.35 1039.4 25.35 1038.04C27.35 1036.68 29.5667 1036 32 1036C34.4333 1036 36.65 1036.68 38.65 1038.04C40.65 1039.4 42.1 1041.22 43 1043.5C42.1 1045.78 40.65 1047.6 38.65 1048.96C36.65 1050.32 34.4333 1051 32 1051ZM32 1049C33.8833 1049 35.6125 1048.5 37.1875 1047.51C38.7625 1046.52 39.9667 1045.18 40.8 1043.5C39.9667 1041.82 38.7625 1040.48 37.1875 1039.49C35.6125 1038.5 33.8833 1038 32 1038C30.1167 1038 28.3875 1038.5 26.8125 1039.49C25.2375 1040.48 24.0333 1041.82 23.2 1043.5C24.0333 1045.18 25.2375 1046.52 26.8125 1047.51C28.3875 1048.5 30.1167 1049 32 1049Z" fill="#003333"/>
</g>
<mask id="mask2_9_1090" style="mask-type:alpha" maskUnits="userSpaceOnUse" x="20" y="724" width="24" height="24">
<rect x="20" y="724" width="24" height="24" fill="#D9D9D9"/>
</mask>
<g mask="url(#mask2_9_1090)">
<path d="M25.825 745L27.45 737.975L22 733.25L29.2 732.625L32 726L34.8 732.625L42 733.25L36.55 737.975L38.175 745L32 741.275L25.825 745Z" fill="#003333"/>
</g>
<mask id="mask3_9_1090" style="mask-type:alpha" maskUnits="userSpaceOnUse" x="20" y="680" width="24" height="24">
<rect x="20" y="680" width="24" height="24" fill="#D9D9D9"/>
</mask>
<g mask="url(#mask3_9_1090)">
<path d="M35.15 696.85L34.325 693.25L37.1 690.85L33.45 690.525L32 687.125V694.925L35.15 696.85ZM25.825 701L27.45 693.975L22 689.25L29.2 688.625L32 682L34.8 688.625L42 689.25L36.55 693.975L38.175 701L32 697.275L25.825 701Z" fill="#003333"/>
</g>
<mask id="mask4_9_1090" style="mask-type:alpha" maskUnits="userSpaceOnUse" x="20" y="636" width="24" height="24">
<rect x="20" y="636" width="24" height="24" fill="#D9D9D9"/>
</mask>
<g mask="url(#mask4_9_1090)">
<path d="M28.85 652.825L32 650.925L35.15 652.85L34.325 649.25L37.1 646.85L33.45 646.525L32 643.125L30.55 646.5L26.9 646.825L29.675 649.25L28.85 652.825ZM25.825 657L27.45 649.975L22 645.25L29.2 644.625L32 638L34.8 644.625L42 645.25L36.55 649.975L38.175 657L32 653.275L25.825 657Z" fill="#003333"/>
</g>
<mask id="mask5_9_1090" style="mask-type:alpha" maskUnits="userSpaceOnUse" x="20" y="812" width="24" height="24">
<rect x="20" y="812" width="24" height="24" fill="#D9D9D9"/>
</mask>
<g mask="url(#mask5_9_1090)">
<path d="M37 834C36.1667 834 35.4583 833.708 34.875 833.125C34.2917 832.542 34 831.833 34 831C34 830.9 34.025 830.667 34.075 830.3L27.05 826.2C26.7833 826.45 26.475 826.646 26.125 826.788C25.775 826.929 25.4 827 25 827C24.1667 827 23.4583 826.708 22.875 826.125C22.2917 825.542 22 824.833 22 824C22 823.167 22.2917 822.458 22.875 821.875C23.4583 821.292 24.1667 821 25 821C25.4 821 25.775 821.071 26.125 821.213C26.475 821.354 26.7833 821.55 27.05 821.8L34.075 817.7C34.0417 817.583 34.0208 817.471 34.0125 817.362C34.0042 817.254 34 817.133 34 817C34 816.167 34.2917 815.458 34.875 814.875C35.4583 814.292 36.1667 814 37 814C37.8333 814 38.5417 814.292 39.125 814.875C39.7083 815.458 40 816.167 40 817C40 817.833 39.7083 818.542 39.125 819.125C38.5417 819.708 37.8333 820 37 820C36.6 820 36.225 819.929 35.875 819.787C35.525 819.646 35.2167 819.45 34.95 819.2L27.925 823.3C27.9583 823.417 27.9792 823.529 27.9875 823.637C27.9958 823.746 28 823.867 28 824C28 824.133 27.9958 824.254 27.9875 824.363C27.9792 824.471 27.9583 824.583 27.925 824.7L34.95 828.8C35.2167 828.55 35.525 828.354 35.875 828.213C36.225 828.071 36.6 828 37 828C37.8333 828 38.5417 828.292 39.125 828.875C39.7083 829.458 40 830.167 40 831C40 831.833 39.7083 832.542 39.125 833.125C38.5417 833.708 37.8333 834 37 834ZM37 832C37.2833 832 37.5208 831.904 37.7125 831.712C37.9042 831.521 38 831.283 38 831C38 830.717 37.9042 830.479 37.7125 830.288C37.5208 830.096 37.2833 830 37 830C36.7167 830 36.4792 830.096 36.2875 830.288C36.0958 830.479 36 830.717 36 831C36 831.283 36.0958 831.521 36.2875 831.712C36.4792 831.904 36.7167 832 37 832ZM25 825C25.2833 825 25.5208 824.904 25.7125 824.713C25.9042 824.521 26 824.283 26 824C26 823.717 25.9042 823.479 25.7125 823.288C25.5208 823.096 25.2833 823 25 823C24.7167 823 24.4792 823.096 24.2875 823.288C24.0958 823.479 24 823.717 24 824C24 824.283 24.0958 824.521 24.2875 824.713C24.4792 824.904 24.7167 825 25 825ZM37 818C37.2833 818 37.5208 817.904 37.7125 817.713C37.9042 817.521 38 817.283 38 817C38 816.717 37.9042 816.479 37.7125 816.288C37.5208 816.096 37.2833 816 37 816C36.7167 816 36.4792 816.096 36.2875 816.288C36.0958 816.479 36 816.717 36 817C36 817.283 36.0958 817.521 36.2875 817.713C36.4792 817.904 36.7167 818 37 818Z" fill="#003333"/>
</g>
<mask id="mask6_9_1090" style="mask-type:alpha" maskUnits="userSpaceOnUse" x="20" y="1252" width="24" height="24">
<rect x="20" y="1252" width="24" height="24" fill="#D9D9D9"/>
</mask>
<g mask="url(#mask6_9_1090)">
<path d="M29.25 1274L28.85 1270.8C28.6333 1270.72 28.4291 1270.62 28.2375 1270.5C28.0458 1270.38 27.8583 1270.26 27.675 1270.12L24.7 1271.38L21.95 1266.62L24.525 1264.68C24.5083 1264.56 24.5 1264.45 24.5 1264.34V1263.66C24.5 1263.55 24.5083 1263.44 24.525 1263.32L21.95 1261.38L24.7 1256.62L27.675 1257.88C27.8583 1257.74 28.05 1257.62 28.25 1257.5C28.45 1257.38 28.65 1257.28 28.85 1257.2L29.25 1254H34.75L35.15 1257.2C35.3666 1257.28 35.5708 1257.38 35.7625 1257.5C35.9541 1257.62 36.1416 1257.74 36.325 1257.88L39.3 1256.62L42.05 1261.38L39.475 1263.32C39.4916 1263.44 39.5 1263.55 39.5 1263.66V1264.34C39.5 1264.45 39.4833 1264.56 39.45 1264.68L42.025 1266.62L39.275 1271.38L36.325 1270.12C36.1416 1270.26 35.95 1270.38 35.75 1270.5C35.55 1270.62 35.35 1270.72 35.15 1270.8L34.75 1274H29.25ZM31 1272H32.975L33.325 1269.35C33.8416 1269.22 34.3208 1269.02 34.7625 1268.76C35.2041 1268.5 35.6083 1268.19 35.975 1267.82L38.45 1268.85L39.425 1267.15L37.275 1265.53C37.3583 1265.29 37.4166 1265.05 37.45 1264.79C37.4833 1264.53 37.5 1264.27 37.5 1264C37.5 1263.73 37.4833 1263.47 37.45 1263.21C37.4166 1262.95 37.3583 1262.71 37.275 1262.48L39.425 1260.85L38.45 1259.15L35.975 1260.2C35.6083 1259.82 35.2041 1259.5 34.7625 1259.24C34.3208 1258.98 33.8416 1258.78 33.325 1258.65L33 1256H31.025L30.675 1258.65C30.1583 1258.78 29.6791 1258.98 29.2375 1259.24C28.7958 1259.5 28.3916 1259.81 28.025 1260.18L25.55 1259.15L24.575 1260.85L26.725 1262.45C26.6416 1262.7 26.5833 1262.95 26.55 1263.2C26.5166 1263.45 26.5 1263.72 26.5 1264C26.5 1264.27 26.5166 1264.53 26.55 1264.78C26.5833 1265.03 26.6416 1265.28 26.725 1265.53L24.575 1267.15L25.55 1268.85L28.025 1267.8C28.3916 1268.18 28.7958 1268.5 29.2375 1268.76C29.6791 1269.02 30.1583 1269.22 30.675 1269.35L31 1272ZM32.05 1267.5C33.0166 1267.5 33.8416 1267.16 34.525 1266.48C35.2083 1265.79 35.55 1264.97 35.55 1264C35.55 1263.03 35.2083 1262.21 34.525 1261.53C33.8416 1260.84 33.0166 1260.5 32.05 1260.5C31.0666 1260.5 30.2375 1260.84 29.5625 1261.53C28.8875 1262.21 28.55 1263.03 28.55 1264C28.55 1264.97 28.8875 1265.79 29.5625 1266.48C30.2375 1267.16 31.0666 1267.5 32.05 1267.5Z" fill="#003333"/>
</g>
<mask id="mask7_9_1090" style="mask-type:alpha" maskUnits="userSpaceOnUse" x="20" y="1208" width="24" height="24">
<rect x="20" y="1208" width="24" height="24" fill="#D9D9D9"/>
</mask>
<g mask="url(#mask7_9_1090)">
<path d="M23 1228V1212L42 1220L23 1228ZM25 1225L36.85 1220L25 1215V1218.5L31 1220L25 1221.5V1225Z" fill="#003333"/>
</g>
<mask id="mask8_9_1090" style="mask-type:alpha" maskUnits="userSpaceOnUse" x="20" y="108" width="24" height="24">
<rect x="20" y="108" width="24" height="24" fill="#D9D9D9"/>
</mask>
<g mask="url(#mask8_9_1090)">
<path d="M39.6 129L33.3 122.7C32.8 123.1 32.225 123.417 31.575 123.65C30.925 123.883 30.2333 124 29.5 124C27.6833 124 26.1458 123.371 24.8875 122.113C23.6292 120.854 23 119.317 23 117.5C23 115.683 23.6292 114.146 24.8875 112.888C26.1458 111.629 27.6833 111 29.5 111C31.3167 111 32.8542 111.629 34.1125 112.888C35.3708 114.146 36 115.683 36 117.5C36 118.233 35.8833 118.925 35.65 119.575C35.4167 120.225 35.1 120.8 34.7 121.3L41 127.6L39.6 129ZM29.5 122C30.75 122 31.8125 121.562 32.6875 120.688C33.5625 119.812 34 118.75 34 117.5C34 116.25 33.5625 115.188 32.6875 114.312C31.8125 113.438 30.75 113 29.5 113C28.25 113 27.1875 113.438 26.3125 114.312C25.4375 115.188 25 116.25 25 117.5C25 118.75 25.4375 119.812 26.3125 120.688C27.1875 121.562 28.25 122 29.5 122Z" fill="#003333"/>
</g>
<mask id="mask9_9_1090" style="mask-type:alpha" maskUnits="userSpaceOnUse" x="20" y="856" width="24" height="24">
<rect x="20" y="856" width="24" height="24" fill="#D9D9D9"/>
</mask>
<g mask="url(#mask9_9_1090)">
<path d="M35.3 872.7L36.7 871.3L33 867.6V863H31V868.4L35.3 872.7ZM32 878C30.6167 878 29.3167 877.737 28.1 877.212C26.8833 876.688 25.825 875.975 24.925 875.075C24.025 874.175 23.3125 873.117 22.7875 871.9C22.2625 870.683 22 869.383 22 868C22 866.617 22.2625 865.317 22.7875 864.1C23.3125 862.883 24.025 861.825 24.925 860.925C25.825 860.025 26.8833 859.312 28.1 858.788C29.3167 858.262 30.6167 858 32 858C33.3833 858 34.6833 858.262 35.9 858.788C37.1167 859.312 38.175 860.025 39.075 860.925C39.975 861.825 40.6875 862.883 41.2125 864.1C41.7375 865.317 42 866.617 42 868C42 869.383 41.7375 870.683 41.2125 871.9C40.6875 873.117 39.975 874.175 39.075 875.075C38.175 875.975 37.1167 876.688 35.9 877.212C34.6833 877.737 33.3833 878 32 878ZM32 876C34.2167 876 36.1042 875.221 37.6625 873.663C39.2208 872.104 40 870.217 40 868C40 865.783 39.2208 863.896 37.6625 862.338C36.1042 860.779 34.2167 860 32 860C29.7833 860 27.8958 860.779 26.3375 862.338C24.7792 863.896 24 865.783 24 868C24 870.217 24.7792 872.104 26.3375 873.663C27.8958 875.221 29.7833 876 32 876Z" fill="#003333"/>
</g>
<mask id="mask10_9_1090" style="mask-type:alpha" maskUnits="userSpaceOnUse" x="20" y="988" width="24" height="24">
<rect x="20" y="988" width="24" height="24" fill="#D9D9D9"/>
</mask>
<g mask="url(#mask10_9_1090)">
<path d="M25 1001V999H39V1001H25Z" fill="#003333"/>
</g>
<mask id="mask11_9_1090" style="mask-type:alpha" maskUnits="userSpaceOnUse" x="20" y="1296" width="24" height="24">
<rect x="20" y="1296" width="24" height="24" fill="#D9D9D9"/>
</mask>
<g mask="url(#mask11_9_1090)">
<path d="M32 1318C30.6167 1318 29.3167 1317.74 28.1 1317.21C26.8833 1316.69 25.825 1315.98 24.925 1315.08C24.025 1314.18 23.3125 1313.12 22.7875 1311.9C22.2625 1310.68 22 1309.38 22 1308C22 1306.6 22.2625 1305.3 22.7875 1304.09C23.3125 1302.88 24.025 1301.83 24.925 1300.92L26.325 1302.33C25.5917 1303.06 25.0208 1303.91 24.6125 1304.88C24.2042 1305.84 24 1306.88 24 1308C24 1310.23 24.775 1312.12 26.325 1313.68C27.875 1315.23 29.7667 1316 32 1316C34.2333 1316 36.125 1315.23 37.675 1313.68C39.225 1312.12 40 1310.23 40 1308C40 1306.88 39.7958 1305.84 39.3875 1304.88C38.9792 1303.91 38.4083 1303.06 37.675 1302.33L39.075 1300.92C39.975 1301.83 40.6875 1302.88 41.2125 1304.09C41.7375 1305.3 42 1306.6 42 1308C42 1309.38 41.7375 1310.68 41.2125 1311.9C40.6875 1313.12 39.975 1314.18 39.075 1315.08C38.175 1315.98 37.1167 1316.69 35.9 1317.21C34.6833 1317.74 33.3833 1318 32 1318ZM31 1309V1298H33V1309H31Z" fill="#003333"/>
</g>
<mask id="mask12_9_1090" style="mask-type:alpha" maskUnits="userSpaceOnUse" x="20" y="64" width="24" height="24">
<rect x="20" y="64" width="24" height="24" fill="#D9D9D9"/>
</mask>
<g mask="url(#mask12_9_1090)">
<path d="M24 83V81H26V74C26 72.6167 26.4167 71.3875 27.25 70.3125C28.0833 69.2375 29.1667 68.5333 30.5 68.2V67.5C30.5 67.0833 30.6458 66.7292 30.9375 66.4375C31.2292 66.1458 31.5833 66 32 66C32.4167 66 32.7708 66.1458 33.0625 66.4375C33.3542 66.7292 33.5 67.0833 33.5 67.5V68.2C34.8333 68.5333 35.9167 69.2375 36.75 70.3125C37.5833 71.3875 38 72.6167 38 74V81H40V83H24ZM32 86C31.45 86 30.9792 85.8042 30.5875 85.4125C30.1958 85.0208 30 84.55 30 84H34C34 84.55 33.8042 85.0208 33.4125 85.4125C33.0208 85.8042 32.55 86 32 86ZM28 81H36V74C36 72.9 35.6083 71.9583 34.825 71.175C34.0417 70.3917 33.1 70 32 70C30.9 70 29.9583 70.3917 29.175 71.175C28.3917 71.9583 28 72.9 28 74V81Z" fill="#003333"/>
</g>
<mask id="mask13_9_1090" style="mask-type:alpha" maskUnits="userSpaceOnUse" x="20" y="548" width="24" height="24">
<rect x="20" y="548" width="24" height="24" fill="#D9D9D9"/>
</mask>
<g mask="url(#mask13_9_1090)">
<path d="M23 566V564H41V566H23ZM23 561V559H41V561H23ZM23 556V554H41V556H23Z" fill="#003333"/>
</g>
<mask id="mask14_9_1090" style="mask-type:alpha" maskUnits="userSpaceOnUse" x="20" y="20" width="24" height="24">
<rect x="20" y="20" width="24" height="24" fill="#D9D9D9"/>
</mask>
<g mask="url(#mask14_9_1090)">
<path d="M24 40C23.45 40 22.9792 39.8042 22.5875 39.4125C22.1958 39.0208 22 38.55 22 38V26C22 25.45 22.1958 24.9792 22.5875 24.5875C22.9792 24.1958 23.45 24 24 24H40C40.55 24 41.0208 24.1958 41.4125 24.5875C41.8042 24.9792 42 25.45 42 26V38C42 38.55 41.8042 39.0208 41.4125 39.4125C41.0208 39.8042 40.55 40 40 40H24ZM32 33L24 28V38H40V28L32 33ZM32 31L40 26H24L32 31ZM24 28V26V38V28Z" fill="#003333"/>
</g>
<mask id="mask15_9_1090" style="mask-type:alpha" maskUnits="userSpaceOnUse" x="20" y="152" width="24" height="24">
<rect x="20" y="152" width="24" height="24" fill="#D9D9D9"/>
</mask>
<g mask="url(#mask15_9_1090)">
<path d="M32 164C32.55 164 33.0208 163.804 33.4125 163.413C33.8042 163.021 34 162.55 34 162C34 161.45 33.8042 160.979 33.4125 160.588C33.0208 160.196 32.55 160 32 160C31.45 160 30.9792 160.196 30.5875 160.588C30.1958 160.979 30 161.45 30 162C30 162.55 30.1958 163.021 30.5875 163.413C30.9792 163.804 31.45 164 32 164ZM32 171.35C34.0333 169.483 35.5417 167.787 36.525 166.262C37.5083 164.738 38 163.383 38 162.2C38 160.383 37.4208 158.896 36.2625 157.737C35.1042 156.579 33.6833 156 32 156C30.3167 156 28.8958 156.579 27.7375 157.737C26.5792 158.896 26 160.383 26 162.2C26 163.383 26.4917 164.738 27.475 166.262C28.4583 167.787 29.9667 169.483 32 171.35ZM32 174C29.3167 171.717 27.3125 169.596 25.9875 167.637C24.6625 165.679 24 163.867 24 162.2C24 159.7 24.8042 157.708 26.4125 156.225C28.0208 154.742 29.8833 154 32 154C34.1167 154 35.9792 154.742 37.5875 156.225C39.1958 157.708 40 159.7 40 162.2C40 163.867 39.3375 165.679 38.0125 167.637C36.6875 169.596 34.6833 171.717 32 174Z" fill="#003333"/>
</g>
<mask id="mask16_9_1090" style="mask-type:alpha" maskUnits="userSpaceOnUse" x="20" y="416" width="24" height="24">
<rect x="20" y="416" width="24" height="24" fill="#D9D9D9"/>
</mask>
<g mask="url(#mask16_9_1090)">
<path d="M32 426.8L27.4 431.4L26 430L32 424L38 430L36.6 431.4L32 426.8Z" fill="#003333"/>
</g>
<mask id="mask17_9_1090" style="mask-type:alpha" maskUnits="userSpaceOnUse" x="20" y="372" width="24" height="24">
<rect x="20" y="372" width="24" height="24" fill="#D9D9D9"/>
</mask>
<g mask="url(#mask17_9_1090)">
<path d="M32 387.4L26 381.4L27.4 380L32 384.6L36.6 380L38 381.4L32 387.4Z" fill="#003333"/>
</g>
<mask id="mask18_9_1090" style="mask-type:alpha" maskUnits="userSpaceOnUse" x="20" y="592" width="24" height="24">
<rect x="20" y="592" width="24" height="24" fill="#D9D9D9"/>
</mask>
<g mask="url(#mask18_9_1090)">
<path d="M25 612V605H23V603H29V605H27V612H25ZM25 601V596H27V601H25ZM29 601V599H31V596H33V599H35V601H29ZM31 612V603H33V612H31ZM37 612V609H35V607H41V609H39V612H37ZM37 605V596H39V605H37Z" fill="#003333"/>
</g>
<mask id="mask19_9_1090" style="mask-type:alpha" maskUnits="userSpaceOnUse" x="20" y="768" width="24" height="24">
<rect x="20" y="768" width="24" height="24" fill="#D9D9D9"/>
</mask>
<g mask="url(#mask19_9_1090)">
<path d="M31 785H33V779H31V785ZM32 777C32.2833 777 32.5208 776.904 32.7125 776.713C32.9042 776.521 33 776.283 33 776C33 775.717 32.9042 775.479 32.7125 775.287C32.5208 775.096 32.2833 775 32 775C31.7167 775 31.4792 775.096 31.2875 775.287C31.0958 775.479 31 775.717 31 776C31 776.283 31.0958 776.521 31.2875 776.713C31.4792 776.904 31.7167 777 32 777ZM32 790C30.6167 790 29.3167 789.737 28.1 789.212C26.8833 788.688 25.825 787.975 24.925 787.075C24.025 786.175 23.3125 785.117 22.7875 783.9C22.2625 782.683 22 781.383 22 780C22 778.617 22.2625 777.317 22.7875 776.1C23.3125 774.883 24.025 773.825 24.925 772.925C25.825 772.025 26.8833 771.312 28.1 770.788C29.3167 770.262 30.6167 770 32 770C33.3833 770 34.6833 770.262 35.9 770.788C37.1167 771.312 38.175 772.025 39.075 772.925C39.975 773.825 40.6875 774.883 41.2125 776.1C41.7375 777.317 42 778.617 42 780C42 781.383 41.7375 782.683 41.2125 783.9C40.6875 785.117 39.975 786.175 39.075 787.075C38.175 787.975 37.1167 788.688 35.9 789.212C34.6833 789.737 33.3833 790 32 790ZM32 788C34.2333 788 36.125 787.225 37.675 785.675C39.225 784.125 40 782.233 40 780C40 777.767 39.225 775.875 37.675 774.325C36.125 772.775 34.2333 772 32 772C29.7667 772 27.875 772.775 26.325 774.325C24.775 775.875 24 777.767 24 780C24 782.233 24.775 784.125 26.325 785.675C27.875 787.225 29.7667 788 32 788Z" fill="#003333"/>
</g>
<mask id="mask20_9_1090" style="mask-type:alpha" maskUnits="userSpaceOnUse" x="20" y="460" width="24" height="24">
<rect x="20" y="460" width="24" height="24" fill="#D9D9D9"/>
</mask>
<g mask="url(#mask20_9_1090)">
<path d="M26 479H29V473H35V479H38V470L32 465.5L26 470V479ZM24 481V469L32 463L40 469V481H33V475H31V481H24Z" fill="#003333"/>
</g>
<mask id="mask21_9_1090" style="mask-type:alpha" maskUnits="userSpaceOnUse" x="20" y="240" width="24" height="24">
<rect x="20" y="240" width="24" height="24" fill="#D9D9D9"/>
</mask>
<g mask="url(#mask21_9_1090)">
<path d="M32 261L30.55 259.7C28.8667 258.183 27.475 256.875 26.375 255.775C25.275 254.675 24.4 253.687 23.75 252.812C23.1 251.937 22.6458 251.133 22.3875 250.4C22.1292 249.667 22 248.917 22 248.15C22 246.583 22.525 245.275 23.575 244.225C24.625 243.175 25.9333 242.65 27.5 242.65C28.3667 242.65 29.1917 242.833 29.975 243.2C30.7583 243.567 31.4333 244.083 32 244.75C32.5667 244.083 33.2417 243.567 34.025 243.2C34.8083 242.833 35.6333 242.65 36.5 242.65C38.0667 242.65 39.375 243.175 40.425 244.225C41.475 245.275 42 246.583 42 248.15C42 248.917 41.8708 249.667 41.6125 250.4C41.3542 251.133 40.9 251.937 40.25 252.812C39.6 253.687 38.725 254.675 37.625 255.775C36.525 256.875 35.1333 258.183 33.45 259.7L32 261Z" fill="#003333"/>
</g>
<mask id="mask22_9_1090" style="mask-type:alpha" maskUnits="userSpaceOnUse" x="20" y="196" width="24" height="24">
<rect x="20" y="196" width="24" height="24" fill="#D9D9D9"/>
</mask>
<g mask="url(#mask22_9_1090)">
<path d="M32 217L30.55 215.7C28.8667 214.183 27.475 212.875 26.375 211.775C25.275 210.675 24.4 209.687 23.75 208.812C23.1 207.937 22.6458 207.133 22.3875 206.4C22.1292 205.667 22 204.917 22 204.15C22 202.583 22.525 201.275 23.575 200.225C24.625 199.175 25.9333 198.65 27.5 198.65C28.3667 198.65 29.1917 198.833 29.975 199.2C30.7583 199.567 31.4333 200.083 32 200.75C32.5667 200.083 33.2417 199.567 34.025 199.2C34.8083 198.833 35.6333 198.65 36.5 198.65C38.0667 198.65 39.375 199.175 40.425 200.225C41.475 201.275 42 202.583 42 204.15C42 204.917 41.8708 205.667 41.6125 206.4C41.3542 207.133 40.9 207.937 40.25 208.812C39.6 209.687 38.725 210.675 37.625 211.775C36.525 212.875 35.1333 214.183 33.45 215.7L32 217ZM32 214.3C33.6 212.867 34.9167 211.637 35.95 210.612C36.9833 209.587 37.8 208.696 38.4 207.937C39 207.179 39.4167 206.504 39.65 205.912C39.8833 205.321 40 204.733 40 204.15C40 203.15 39.6667 202.317 39 201.65C38.3333 200.983 37.5 200.65 36.5 200.65C35.7167 200.65 34.9917 200.871 34.325 201.312C33.6583 201.754 33.2 202.317 32.95 203H31.05C30.8 202.317 30.3417 201.754 29.675 201.312C29.0083 200.871 28.2833 200.65 27.5 200.65C26.5 200.65 25.6667 200.983 25 201.65C24.3333 202.317 24 203.15 24 204.15C24 204.733 24.1167 205.321 24.35 205.912C24.5833 206.504 25 207.179 25.6 207.937C26.2 208.696 27.0167 209.587 28.05 210.612C29.0833 211.637 30.4 212.867 32 214.3Z" fill="#003333"/>
</g>
<mask id="mask23_9_1090" style="mask-type:alpha" maskUnits="userSpaceOnUse" x="20" y="1120" width="24" height="24">
<rect x="20" y="1120" width="24" height="24" fill="#D9D9D9"/>
</mask>
<g mask="url(#mask23_9_1090)">
<path d="M27 1141C26.45 1141 25.9792 1140.8 25.5875 1140.41C25.1958 1140.02 25 1139.55 25 1139V1126H24V1124H29V1123H35V1124H40V1126H39V1139C39 1139.55 38.8042 1140.02 38.4125 1140.41C38.0208 1140.8 37.55 1141 37 1141H27ZM37 1126H27V1139H37V1126ZM29 1137H31V1128H29V1137ZM33 1137H35V1128H33V1137Z" fill="#003333"/>
</g>
<mask id="mask24_9_1090" style="mask-type:alpha" maskUnits="userSpaceOnUse" x="20" y="504" width="24" height="24">
<rect x="20" y="504" width="24" height="24" fill="#D9D9D9"/>
</mask>
<g mask="url(#mask24_9_1090)">
<path d="M32 521C32.2833 521 32.5208 520.904 32.7125 520.713C32.9042 520.521 33 520.283 33 520C33 519.717 32.9042 519.479 32.7125 519.288C32.5208 519.096 32.2833 519 32 519C31.7167 519 31.4792 519.096 31.2875 519.288C31.0958 519.479 31 519.717 31 520C31 520.283 31.0958 520.521 31.2875 520.713C31.4792 520.904 31.7167 521 32 521ZM32 517C32.2833 517 32.5208 516.904 32.7125 516.713C32.9042 516.521 33 516.283 33 516C33 515.717 32.9042 515.479 32.7125 515.287C32.5208 515.096 32.2833 515 32 515C31.7167 515 31.4792 515.096 31.2875 515.287C31.0958 515.479 31 515.717 31 516C31 516.283 31.0958 516.521 31.2875 516.713C31.4792 516.904 31.7167 517 32 517ZM32 513C32.2833 513 32.5208 512.904 32.7125 512.713C32.9042 512.521 33 512.283 33 512C33 511.717 32.9042 511.479 32.7125 511.288C32.5208 511.096 32.2833 511 32 511C31.7167 511 31.4792 511.096 31.2875 511.288C31.0958 511.479 31 511.717 31 512C31 512.283 31.0958 512.521 31.2875 512.713C31.4792 512.904 31.7167 513 32 513ZM40 524H24C23.45 524 22.9792 523.804 22.5875 523.413C22.1958 523.021 22 522.55 22 522V518C22.55 518 23.0208 517.804 23.4125 517.413C23.8042 517.021 24 516.55 24 516C24 515.45 23.8042 514.979 23.4125 514.588C23.0208 514.196 22.55 514 22 514V510C22 509.45 22.1958 508.979 22.5875 508.588C22.9792 508.196 23.45 508 24 508H40C40.55 508 41.0208 508.196 41.4125 508.588C41.8042 508.979 42 509.45 42 510V514C41.45 514 40.9792 514.196 40.5875 514.588C40.1958 514.979 40 515.45 40 516C40 516.55 40.1958 517.021 40.5875 517.413C40.9792 517.804 41.45 518 42 518V522C42 522.55 41.8042 523.021 41.4125 523.413C41.0208 523.804 40.55 524 40 524ZM40 522V519.45C39.3833 519.083 38.8958 518.596 38.5375 517.988C38.1792 517.379 38 516.717 38 516C38 515.283 38.1792 514.621 38.5375 514.013C38.8958 513.404 39.3833 512.917 40 512.55V510H24V512.55C24.6167 512.917 25.1042 513.404 25.4625 514.013C25.8208 514.621 26 515.283 26 516C26 516.717 25.8208 517.379 25.4625 517.988C25.1042 518.596 24.6167 519.083 24 519.45V522H40Z" fill="#003333"/>
</g>
<mask id="mask25_9_1090" style="mask-type:alpha" maskUnits="userSpaceOnUse" x="20" y="900" width="24" height="24">
<rect x="20" y="900" width="24" height="24" fill="#D9D9D9"/>
</mask>
<g mask="url(#mask25_9_1090)">
<path d="M25 922C24.45 922 23.9792 921.804 23.5875 921.413C23.1958 921.021 23 920.55 23 920V906C23 905.45 23.1958 904.979 23.5875 904.588C23.9792 904.196 24.45 904 25 904H26V902H28V904H36V902H38V904H39C39.55 904 40.0208 904.196 40.4125 904.588C40.8042 904.979 41 905.45 41 906V920C41 920.55 40.8042 921.021 40.4125 921.413C40.0208 921.804 39.55 922 39 922H25ZM25 920H39V910H25V920ZM25 908H39V906H25V908Z" fill="#003333"/>
</g>
<mask id="mask26_9_1090" style="mask-type:alpha" maskUnits="userSpaceOnUse" x="20" y="328" width="24" height="24">
<rect x="20" y="328" width="24" height="24" fill="#D9D9D9"/>
</mask>
<g mask="url(#mask26_9_1090)">
<path d="M28.025 350L26.25 348.225L34.475 340L26.25 331.775L28.025 330L38.025 340L28.025 350Z" fill="#003333"/>
</g>
<mask id="mask27_9_1090" style="mask-type:alpha" maskUnits="userSpaceOnUse" x="20" y="284" width="24" height="24">
<rect x="20" y="284" width="24" height="24" fill="#D9D9D9"/>
</mask>
<g mask="url(#mask27_9_1090)">
<path d="M36 306L26 296L36 286L37.775 287.775L29.55 296L37.775 304.225L36 306Z" fill="#003333"/>
</g>
<mask id="mask28_9_1090" style="mask-type:alpha" maskUnits="userSpaceOnUse" x="20" y="1164" width="24" height="24">
<rect x="20" y="1164" width="24" height="24" fill="#D9D9D9"/>
</mask>
<g mask="url(#mask28_9_1090)">
<path d="M31 1178H33V1175H36V1173H33V1170H31V1173H28V1175H31V1178ZM22 1186V1168C22 1167.45 22.1958 1166.98 22.5875 1166.59C22.9792 1166.2 23.45 1166 24 1166H40C40.55 1166 41.0208 1166.2 41.4125 1166.59C41.8042 1166.98 42 1167.45 42 1168V1180C42 1180.55 41.8042 1181.02 41.4125 1181.41C41.0208 1181.8 40.55 1182 40 1182H26L22 1186ZM25.15 1180H40V1168H24V1181.12L25.15 1180Z" fill="#003333"/>
</g>
<mask id="mask29_9_1090" style="mask-type:alpha" maskUnits="userSpaceOnUse" x="20" y="944" width="24" height="24">
<rect x="20" y="944" width="24" height="24" fill="#D9D9D9"/>
</mask>
<g mask="url(#mask29_9_1090)">
<path d="M31 965V957H23V955H31V947H33V955H41V957H33V965H31Z" fill="#003333"/>
</g>
</svg>
